<svg xmlns="http://www.w3.org/2000/svg" version="1.1" xmlns:xlink="http://www.w3.org/1999/xlink" xmlns:svgjs="http://svgjs.dev/svgjs" width="2000" height="1500" viewBox="0 0 2000 1500"><rect width="2000" height="1500" fill="#ffffff"></rect><g transform="matrix(0.75,0,0,0.75,249.090909090909,386.2555115543063)"><svg viewBox="0 0 396 192" data-background-color="#ffffff" preserveAspectRatio="xMidYMid meet" height="969" width="2000" xmlns="http://www.w3.org/2000/svg" xmlns:xlink="http://www.w3.org/1999/xlink"><g id="tight-bounds" transform="matrix(1,0,0,1,0.2400000000000091,0.09761511052383298)"><svg viewBox="0 0 395.52 191.80476977895233" height="191.80476977895233" width="395.52"><g><svg viewBox="0 0 395.52 191.80476977895233" height="191.80476977895233" width="395.52"><g transform="matrix(1,0,0,1,0,118.54304254912694)"><svg viewBox="0 0 395.52 73.26172722982538" height="73.26172722982538" width="395.52"><g id="textblocktransform"><svg viewBox="0 0 395.52 73.26172722982538" height="73.26172722982538" width="395.52" id="textblock"><g><svg viewBox="0 0 395.52 73.26172722982538" height="73.26172722982538" width="395.52"><g transform="matrix(1,0,0,1,0,0)"><svg width="395.52" viewBox="1.4 -38.7 211.88 39.25" height="73.26172722982538" data-palette-color="#f0f3f4"><path d="M1.95-24.2L4.85-24.2 4.85-29.65 11.6-30.95 10.95-24.2 17-24.2 16.45-20.1 10.75-20.1 10.5-9.65Q10.5-7.3 10.95-6.53 11.4-5.75 12.6-5.75 13.8-5.75 15.8-6.3L15.8-6.3 16.1-2.75Q12.8 0 10.3 0 7.8 0 6.2-1.83 4.6-3.65 4.6-6.6L4.6-6.6 4.9-12.2 4.85-20.1 1.4-20.1 1.95-24.2ZM29.65-5.1L29.65-5.1Q31.1-5.1 32.7-5.85 34.3-6.6 35.2-7.35L35.2-7.35 36.1-8.1 38.4-5.3Q37.9-4.45 36.85-3.35 35.8-2.25 34.72-1.48 33.65-0.7 31.87-0.08 30.1 0.55 28.2 0.55L28.2 0.55Q24.15 0.55 21.6-2.53 19.05-5.6 19.05-10.45L19.05-10.45Q19.05-16.55 22.6-21.15 26.15-25.75 30.9-25.75L30.9-25.75Q34.55-25.75 36.57-23.7 38.6-21.65 38.6-17.95L38.6-17.95Q38.6-15.75 37.85-12.95L37.85-12.95 36.85-11.9 24.35-10.75Q25.2-5.1 29.65-5.1ZM29.65-20.6L29.65-20.6Q27.45-20.6 25.95-18.82 24.45-17.05 24.2-14.3L24.2-14.3 32.7-15.35Q32.85-16.5 32.85-17.25L32.85-17.25Q32.85-20.6 29.65-20.6ZM51.55-19.25Q49.34-19.25 48.15-17.68 46.95-16.1 46.95-12.85 46.95-9.6 48.17-7.63 49.4-5.65 51.75-5.65L51.75-5.65Q52.95-5.65 54.09-6.4 55.25-7.15 55.84-7.9L55.84-7.9 56.4-8.7 58.9-6.1Q58.75-5.85 58.52-5.4 58.3-4.95 57.42-3.8 56.55-2.65 55.57-1.78 54.59-0.9 53.05-0.18 51.5 0.55 49.8 0.55L49.8 0.55Q46.05 0.55 43.7-2.5 41.34-5.55 41.34-10.45L41.34-10.45Q41.34-16.55 44.9-21.15 48.45-25.75 53.2-25.75L53.2-25.75Q54.65-25.75 56.09-25.33 57.55-24.9 59.05-24L59.05-24 55.55-17.85Q53.75-19.25 51.55-19.25ZM76.79-12.65Q76.79-16.1 76.19-17.25 75.59-18.4 73.39-18.4 71.19-18.4 68.39-16.65L68.39-16.65 68.39-13 68.94-1.25 62.19 0 62.79-12.15 62.19-37.45 69.04-38.7 68.39-25.75 68.39-19.9Q69.14-20.9 70.09-21.85 71.04-22.8 73.04-24 75.04-25.2 77.32-25.2 79.59-25.2 81.14-23.43 82.69-21.65 82.69-18.6L82.69-18.6 82.39-13 82.94-1 76.19 0.25 76.79-12.65ZM95.19-24.2L98.09-24.2 98.09-29.65 104.84-30.95 104.19-24.2 110.24-24.2 109.69-20.1 103.99-20.1 103.74-9.65Q103.74-7.3 104.19-6.53 104.64-5.75 105.84-5.75 107.04-5.75 109.04-6.3L109.04-6.3 109.34-2.75Q106.04 0 103.54 0 101.04 0 99.44-1.83 97.84-3.65 97.84-6.6L97.84-6.6 98.14-12.2 98.09-20.1 94.64-20.1 95.19-24.2ZM113.89-24.2L120.59-25.45 119.99-13 120.54-1.25 113.84 0 114.44-12.15 113.89-24.2ZM113.54-32.77Q113.54-34.45 114.84-35.77 116.14-37.1 117.84-37.1 119.54-37.1 120.44-36.18 121.34-35.25 121.34-33.4 121.34-31.55 120.06-30.23 118.79-28.9 117.11-28.9 115.44-28.9 114.49-30 113.54-31.1 113.54-32.77ZM140.58-12.65Q140.58-16.1 139.98-17.25 139.38-18.4 137.18-18.4 134.98-18.4 132.18-16.65L132.18-16.65 132.18-13 132.73-1.25 126.03 0 126.63-12.15Q126.43-18.85 125.53-24.15L125.53-24.15 131.58-25.45Q131.93-22.55 132.08-19.8L132.08-19.8Q132.83-20.8 133.78-21.78 134.73-22.75 136.78-23.98 138.83-25.2 141.11-25.2 143.38-25.2 144.93-23.43 146.48-21.65 146.48-18.6L146.48-18.6 146.18-13 146.73-1 139.98 0.25 140.58-12.65ZM173.53-3.3L167.83 0.5 158.43-13.35 158.43-13 158.98-1.25 152.23 0 152.83-12.15 152.23-37.45 159.08-38.7 158.43-14.55 168.43-25.5 173.13-22.3 164.38-14.1 173.53-3.3ZM185.33-5.1L185.33-5.1Q186.78-5.1 188.38-5.85 189.98-6.6 190.88-7.35L190.88-7.35 191.78-8.1 194.08-5.3Q193.58-4.45 192.53-3.35 191.48-2.25 190.4-1.48 189.33-0.7 187.55-0.08 185.78 0.55 183.88 0.55L183.88 0.55Q179.83 0.55 177.28-2.53 174.73-5.6 174.73-10.45L174.73-10.45Q174.73-16.55 178.28-21.15 181.83-25.75 186.58-25.75L186.58-25.75Q190.23-25.75 192.25-23.7 194.28-21.65 194.28-17.95L194.28-17.95Q194.28-15.75 193.53-12.95L193.53-12.95 192.53-11.9 180.03-10.75Q180.88-5.1 185.33-5.1ZM185.33-20.6L185.33-20.6Q183.13-20.6 181.63-18.82 180.13-17.05 179.88-14.3L179.88-14.3 188.38-15.35Q188.53-16.5 188.53-17.25L188.53-17.25Q188.53-20.6 185.33-20.6ZM198.08-24.15L198.08-24.15 204.13-25.45Q204.58-21.6 204.73-18.15L204.73-18.15Q209.28-25.2 213.28-25.2L213.28-25.2 212.73-17.4Q209.83-17.4 208.15-16.88 206.48-16.35 204.73-14.8L204.73-14.8 204.73-13 205.28-1.25 198.58 0 199.18-12.15Q198.98-18.85 198.08-24.15Z" opacity="1" transform="matrix(1,0,0,1,0,0)" fill="#f0f3f4" class="wordmark-text-0" data-fill-palette-color="primary" id="text-0"></path></svg></g></svg></g></svg></g></svg></g><g transform="matrix(1,0,0,1,147.13614648419065,0)"><svg viewBox="0 0 101.24770703161869 101.24770703161869" height="101.24770703161869" width="101.24770703161869"><g><svg></svg></g><g id="icon-0"><svg viewBox="0 0 101.24770703161869 101.24770703161869" height="101.24770703161869" width="101.24770703161869"><g><path transform="scale(1.01248,1.01248)" d="M30 100c-16.569 0-30-13.431-30-30v-40c0-16.569 13.431-30 30-30h40c16.569 0 30 13.431 30 30v40c0 16.569-13.431 30-30 30z" fill="#a6d2e3" fill-rule="nonzero" stroke="none" stroke-width="1" stroke-linecap="butt" stroke-linejoin="miter" stroke-miterlimit="10" stroke-dasharray="" stroke-dashoffset="0" font-family="none" font-weight="none" font-size="none" text-anchor="none" style="mix-blend-mode: normal" data-fill-palette-color="accent"></path></g><g transform="matrix(1,0,0,1,20.24954140632374,29.00836339523216)"><svg viewBox="0 0 60.74862421897121 43.23098024115437" height="43.23098024115437" width="60.74862421897121"><g><svg xmlns="http://www.w3.org/2000/svg" xmlns:xlink="http://www.w3.org/1999/xlink" version="1.1" x="0" y="0" viewBox="3.12 21.866 86.679 61.684" enable-background="new 0 0 100 100" xml:space="preserve" height="43.23098024115437" width="60.74862421897121" class="icon-dxe-0" data-fill-palette-color="quaternary" id="dxe-0"><g fill="#ffffff" data-fill-palette-color="quaternary"><g fill="#ffffff" data-fill-palette-color="quaternary"><path d="M89.799 34.94A15.8 15.8 0 0 0 88.697 31.158 16 16 0 0 0 87.256 28.569L85.179 29.763A13.4 13.4 0 0 0 82.277 26.768L83.399 24.63A15.9 15.9 0 0 0 77.097 21.918L76.47 24.241A13.4 13.4 0 0 0 72.303 24.175L71.584 21.866C70.309 22.076 69.04 22.427 67.802 22.968 66.877 23.372 66.018 23.861 65.213 24.409L66.407 26.486A13.4 13.4 0 0 0 63.412 29.388L61.274 28.266A15.9 15.9 0 0 0 58.562 34.568L60.885 35.195A13.4 13.4 0 0 0 60.819 39.362L58.51 40.081A15.8 15.8 0 0 0 59.612 43.863C60.016 44.788 60.505 45.647 61.053 46.452L63.13 45.258A13.4 13.4 0 0 0 66.032 48.253L64.91 50.391A15.9 15.9 0 0 0 71.212 53.103L71.839 50.78C73.2 51.019 74.604 51.041 76.006 50.846L76.725 53.155A15.8 15.8 0 0 0 80.507 52.053 16 16 0 0 0 83.096 50.612L81.902 48.535A13.4 13.4 0 0 0 84.897 45.633L87.035 46.755A15.9 15.9 0 0 0 89.747 40.453L87.424 39.826C87.663 38.465 87.685 37.061 87.49 35.659zM77.649 45.51A8.729 8.729 0 1 1 70.66 29.513 8.729 8.729 0 0 1 77.65 45.51" fill="#ffffff" data-fill-palette-color="quaternary"></path><path d="M62.94 60.639C63.548 58.241 63.906 55.744 63.906 53.157 63.906 51.225 63.706 49.341 63.361 47.509L58.8 48.012A25.6 25.6 0 0 0 56.003 40.531L59.611 37.64C57.34 33.83 54.284 30.545 50.631 28.049L47.749 31.645A25.7 25.7 0 0 0 40.486 28.334L40.994 23.73C38.596 23.122 36.099 22.764 33.512 22.764 31.58 22.764 29.696 22.964 27.864 23.309L28.367 27.87A25.6 25.6 0 0 0 20.886 30.667L17.995 27.059C14.185 29.33 10.9 32.386 8.404 36.039L12 38.921A25.7 25.7 0 0 0 8.689 46.184L4.085 45.676C3.478 48.072 3.12 50.57 3.12 53.157 3.12 55.089 3.32 56.973 3.665 58.805L8.226 58.302A25.6 25.6 0 0 0 11.023 65.783L7.415 68.674C9.686 72.484 12.742 75.77 16.395 78.265L19.277 74.669A25.7 25.7 0 0 0 26.54 77.98L26.032 82.584C28.43 83.192 30.927 83.55 33.514 83.55 35.446 83.55 37.33 83.35 39.162 83.005L38.659 78.444A25.6 25.6 0 0 0 46.14 75.647L49.031 79.255C52.841 76.984 56.126 73.928 58.622 70.275L55.026 67.393A25.7 25.7 0 0 0 58.337 60.13zM33.513 69.873C24.281 69.873 16.797 62.389 16.797 53.157S24.281 36.441 33.513 36.441 50.229 43.925 50.229 53.157 42.745 69.873 33.513 69.873" fill="#ffffff" data-fill-palette-color="quaternary"></path></g></g></svg></g></svg></g></svg></g></svg></g><g></g></svg></g><defs></defs></svg><rect width="395.52" height="191.80476977895233" fill="none" stroke="none" visibility="hidden"></rect></g></svg></g></svg>